<svg width="5797" height="2741" viewBox="0 0 5797 2741" fill="none" xmlns="http://www.w3.org/2000/svg">
<rect width="5797" height="2741" rx="240" fill="#052B28"/>
<rect x="2347" y="268" width="1103" height="1103" rx="100" fill="#9FE29E"/>
<path d="M3229 1148H3089V1012.75C3085.32 1017.81 3081.47 1022.85 3077.47 1027.86C3022.09 1097.22 2947.38 1135.38 2858.9 1145.63C2800.78 1152.37 2744.59 1145.11 2692.04 1118.88C2606.39 1076.13 2558.13 985.369 2568.35 892.504C2579.39 792.262 2647.16 716.324 2741.54 693.194C2777.52 684.376 2813.39 684.849 2849.43 692.922C2858.7 694.999 2861.31 698.58 2858.36 708.122C2847.29 743.973 2836.52 779.934 2826.62 816.121C2823.35 828.076 2815.91 824.754 2808.65 823.623C2758.62 815.837 2710.19 852.237 2704.08 902.36C2697.55 955.882 2731.45 999.095 2787.63 1008.87C2897.1 1027.9 2999.57 956.452 3015.35 846.514C3031.96 730.825 2949.97 643.318 2855.47 628.233C2815.14 621.795 2776.63 627.198 2739.83 644.944C2735.22 647.168 2730.48 650.972 2726.45 643.583C2706.33 606.733 2686.05 569.972 2665.88 533.295C2769.67 462.722 2975.04 468.896 3089 623.565V490H3229V1148Z" fill="#052B28"/>
<path d="M1050.35 1780.15V2007H1004.85V1859.45L944.079 2007H909.629L848.529 1859.45V2007H803.029V1780.15H854.704L926.854 1948.82L999.005 1780.15H1050.35ZM1118.41 1805.5C1110.4 1805.5 1103.68 1803.01 1098.26 1798.02C1093.06 1792.82 1090.46 1786.43 1090.46 1778.85C1090.46 1771.27 1093.06 1764.98 1098.26 1760C1103.68 1754.8 1110.4 1752.2 1118.41 1752.2C1126.43 1752.2 1133.04 1754.8 1138.24 1760C1143.66 1764.98 1146.36 1771.27 1146.36 1778.85C1146.36 1786.43 1143.66 1792.82 1138.24 1798.02C1133.04 1803.01 1126.43 1805.5 1118.41 1805.5ZM1140.84 1826.95V2007H1095.34V1826.95H1140.84ZM1231.29 1854.9C1237.14 1845.37 1244.73 1837.89 1254.04 1832.47C1263.58 1827.06 1274.41 1824.35 1286.54 1824.35V1872.12H1274.52C1260.22 1872.12 1249.38 1875.48 1242.02 1882.2C1234.87 1888.92 1231.29 1900.62 1231.29 1917.3V2007H1185.79V1826.95H1231.29V1854.9ZM1484.56 1913.07C1484.56 1919.57 1484.13 1925.42 1483.26 1930.62H1351.64C1352.72 1943.62 1357.27 1953.81 1365.29 1961.17C1373.31 1968.54 1383.16 1972.22 1394.86 1972.22C1411.76 1972.22 1423.79 1964.97 1430.94 1950.45H1480.01C1474.81 1967.78 1464.85 1982.08 1450.11 1993.35C1435.38 2004.4 1417.29 2009.93 1395.84 2009.93C1378.51 2009.93 1362.91 2006.13 1349.04 1998.55C1335.39 1990.75 1324.66 1979.81 1316.86 1965.72C1309.28 1951.64 1305.49 1935.39 1305.49 1916.97C1305.49 1898.34 1309.28 1881.98 1316.86 1867.9C1324.45 1853.82 1335.06 1842.98 1348.71 1835.4C1362.36 1827.82 1378.07 1824.02 1395.84 1824.02C1412.96 1824.02 1428.23 1827.71 1441.66 1835.07C1455.31 1842.44 1465.82 1852.95 1473.19 1866.6C1480.77 1880.03 1484.56 1895.52 1484.56 1913.07ZM1437.44 1900.07C1437.22 1888.37 1433 1879.06 1424.76 1872.12C1416.53 1864.97 1406.46 1861.4 1394.54 1861.4C1383.27 1861.4 1373.74 1864.87 1365.94 1871.8C1358.36 1878.52 1353.7 1887.94 1351.96 1900.07H1437.44ZM1364.96 1804.85C1358.9 1804.85 1353.81 1802.79 1349.69 1798.67C1345.57 1794.56 1343.51 1789.47 1343.51 1783.4C1343.51 1777.33 1345.57 1772.24 1349.69 1768.12C1353.81 1763.79 1358.9 1761.62 1364.96 1761.62C1371.03 1761.62 1376.12 1763.79 1380.24 1768.12C1384.57 1772.24 1386.74 1777.33 1386.74 1783.4C1386.74 1789.47 1384.57 1794.56 1380.24 1798.67C1376.12 1802.79 1371.03 1804.85 1364.96 1804.85ZM1425.09 1804.85C1419.02 1804.85 1413.93 1802.79 1409.81 1798.67C1405.7 1794.56 1403.64 1789.47 1403.64 1783.4C1403.64 1777.33 1405.7 1772.24 1409.81 1768.12C1413.93 1763.79 1419.02 1761.62 1425.09 1761.62C1431.16 1761.62 1436.25 1763.79 1440.36 1768.12C1444.7 1772.24 1446.86 1777.33 1446.86 1783.4C1446.86 1789.47 1444.7 1794.56 1440.36 1798.67C1436.25 1802.79 1431.16 1804.85 1425.09 1804.85ZM1586.68 2009.93C1571.94 2009.93 1558.73 2007.33 1547.03 2002.12C1535.33 1996.71 1526.01 1989.45 1519.08 1980.35C1512.36 1971.25 1508.68 1961.17 1508.03 1950.12H1553.85C1554.72 1957.06 1558.08 1962.8 1563.93 1967.35C1569.99 1971.9 1577.47 1974.17 1586.35 1974.17C1595.02 1974.17 1601.73 1972.44 1606.5 1968.97C1611.48 1965.51 1613.98 1961.07 1613.98 1955.65C1613.98 1949.8 1610.94 1945.47 1604.88 1942.65C1599.03 1939.62 1589.6 1936.37 1576.6 1932.9C1563.17 1929.65 1552.12 1926.29 1543.45 1922.82C1535 1919.36 1527.63 1914.05 1521.35 1906.9C1515.28 1899.75 1512.25 1890.11 1512.25 1877.97C1512.25 1868.01 1515.07 1858.91 1520.7 1850.67C1526.55 1842.44 1534.78 1835.94 1545.4 1831.17C1556.23 1826.41 1568.91 1824.02 1583.43 1824.02C1604.88 1824.02 1621.99 1829.44 1634.78 1840.27C1647.56 1850.89 1654.6 1865.3 1655.9 1883.5H1612.35C1611.7 1876.35 1608.67 1870.72 1603.25 1866.6C1598.05 1862.27 1591.01 1860.1 1582.13 1860.1C1573.89 1860.1 1567.5 1861.62 1562.95 1864.65C1558.62 1867.68 1556.45 1871.91 1556.45 1877.32C1556.45 1883.39 1559.48 1888.05 1565.55 1891.3C1571.62 1894.33 1581.04 1897.47 1593.83 1900.72C1606.83 1903.97 1617.55 1907.33 1626 1910.8C1634.45 1914.27 1641.71 1919.68 1647.78 1927.05C1654.06 1934.2 1657.31 1943.73 1657.53 1955.65C1657.53 1966.05 1654.6 1975.37 1648.75 1983.6C1643.12 1991.83 1634.88 1998.33 1624.05 2003.1C1613.43 2007.65 1600.98 2009.93 1586.68 2009.93ZM1862.25 1913.07C1862.25 1919.57 1861.82 1925.42 1860.95 1930.62H1729.33C1730.41 1943.62 1734.96 1953.81 1742.98 1961.17C1750.99 1968.54 1760.85 1972.22 1772.55 1972.22C1789.45 1972.22 1801.48 1964.97 1808.63 1950.45H1857.7C1852.5 1967.78 1842.53 1982.08 1827.8 1993.35C1813.07 2004.4 1794.98 2009.93 1773.53 2009.93C1756.19 2009.93 1740.59 2006.13 1726.73 1998.55C1713.08 1990.75 1702.35 1979.81 1694.55 1965.72C1686.97 1951.64 1683.18 1935.39 1683.18 1916.97C1683.18 1898.34 1686.97 1881.98 1694.55 1867.9C1702.13 1853.82 1712.75 1842.98 1726.4 1835.4C1740.05 1827.82 1755.76 1824.02 1773.53 1824.02C1790.64 1824.02 1805.92 1827.71 1819.35 1835.07C1833 1842.44 1843.51 1852.95 1850.88 1866.6C1858.46 1880.03 1862.25 1895.52 1862.25 1913.07ZM1815.13 1900.07C1814.91 1888.37 1810.68 1879.06 1802.45 1872.12C1794.22 1864.97 1784.14 1861.4 1772.23 1861.4C1760.96 1861.4 1751.43 1864.87 1743.63 1871.8C1736.04 1878.52 1731.38 1887.94 1729.65 1900.07H1815.13ZM1970.54 1965.07L2016.04 1826.95H2064.46L1997.84 2007H1942.59L1876.29 1826.95H1925.04L1970.54 1965.07ZM2113.09 1805.5C2105.08 1805.5 2098.36 1803.01 2092.94 1798.02C2087.74 1792.82 2085.14 1786.43 2085.14 1778.85C2085.14 1771.27 2087.74 1764.98 2092.94 1760C2098.36 1754.8 2105.08 1752.2 2113.09 1752.2C2121.11 1752.2 2127.72 1754.8 2132.92 1760C2138.33 1764.98 2141.04 1771.27 2141.04 1778.85C2141.04 1786.43 2138.33 1792.82 2132.92 1798.02C2127.72 1803.01 2121.11 1805.5 2113.09 1805.5ZM2135.52 1826.95V2007H2090.02V1826.95H2135.52ZM2280.25 1824.35C2301.7 1824.35 2319.03 1831.17 2332.25 1844.82C2345.46 1858.26 2352.07 1877.11 2352.07 1901.37V2007H2306.57V1907.55C2306.57 1893.25 2303 1882.31 2295.85 1874.72C2288.7 1866.92 2278.95 1863.02 2266.6 1863.02C2254.03 1863.02 2244.06 1866.92 2236.7 1874.72C2229.55 1882.31 2225.97 1893.25 2225.97 1907.55V2007H2180.47V1826.95H2225.97V1849.37C2232.04 1841.57 2239.73 1835.51 2249.05 1831.17C2258.58 1826.62 2268.98 1824.35 2280.25 1824.35ZM2418.41 1805.5C2410.4 1805.5 2403.68 1803.01 2398.26 1798.02C2393.06 1792.82 2390.46 1786.43 2390.46 1778.85C2390.46 1771.27 2393.06 1764.98 2398.26 1760C2403.68 1754.8 2410.4 1752.2 2418.41 1752.2C2426.43 1752.2 2433.04 1754.8 2438.24 1760C2443.66 1764.98 2446.36 1771.27 2446.36 1778.85C2446.36 1786.43 2443.66 1792.82 2438.24 1798.02C2433.04 1803.01 2426.43 1805.5 2418.41 1805.5ZM2440.84 1826.95V2007H2395.34V1826.95H2440.84ZM2663.01 1824.35C2684.46 1824.35 2701.79 1831.17 2715.01 1844.82C2728.23 1858.26 2734.83 1877.11 2734.83 1901.37V2007H2689.33V1907.55C2689.33 1893.25 2685.76 1882.31 2678.61 1874.72C2671.46 1866.92 2661.71 1863.02 2649.36 1863.02C2636.79 1863.02 2626.83 1866.92 2619.46 1874.72C2612.31 1882.31 2608.73 1893.25 2608.73 1907.55V2007H2563.23V1826.95H2608.73V1849.37C2614.8 1841.57 2622.49 1835.51 2631.81 1831.17C2641.34 1826.62 2651.74 1824.35 2663.01 1824.35ZM2945.48 1913.07C2945.48 1919.57 2945.04 1925.42 2944.18 1930.62H2812.55C2813.64 1943.62 2818.19 1953.81 2826.2 1961.17C2834.22 1968.54 2844.08 1972.22 2855.78 1972.22C2872.68 1972.22 2884.7 1964.97 2891.85 1950.45H2940.93C2935.73 1967.78 2925.76 1982.08 2911.03 1993.35C2896.29 2004.4 2878.2 2009.93 2856.75 2009.93C2839.42 2009.93 2823.82 2006.13 2809.95 1998.55C2796.3 1990.75 2785.58 1979.81 2777.78 1965.72C2770.19 1951.64 2766.4 1935.39 2766.4 1916.97C2766.4 1898.34 2770.19 1881.98 2777.78 1867.9C2785.36 1853.82 2795.98 1842.98 2809.63 1835.4C2823.28 1827.82 2838.99 1824.02 2856.75 1824.02C2873.87 1824.02 2889.14 1827.71 2902.58 1835.07C2916.23 1842.44 2926.74 1852.95 2934.1 1866.6C2941.69 1880.03 2945.48 1895.52 2945.48 1913.07ZM2898.35 1900.07C2898.14 1888.37 2893.91 1879.06 2885.68 1872.12C2877.44 1864.97 2867.37 1861.4 2855.45 1861.4C2844.19 1861.4 2834.65 1864.87 2826.85 1871.8C2819.27 1878.52 2814.61 1887.94 2812.88 1900.07H2898.35ZM2825.88 1804.85C2819.81 1804.85 2814.72 1802.79 2810.6 1798.67C2806.49 1794.56 2804.43 1789.47 2804.43 1783.4C2804.43 1777.33 2806.49 1772.24 2810.6 1768.12C2814.72 1763.79 2819.81 1761.62 2825.88 1761.62C2831.94 1761.62 2837.04 1763.79 2841.15 1768.12C2845.49 1772.24 2847.65 1777.33 2847.65 1783.4C2847.65 1789.47 2845.49 1794.56 2841.15 1798.67C2837.04 1802.79 2831.94 1804.85 2825.88 1804.85ZM2886 1804.85C2879.94 1804.85 2874.84 1802.79 2870.73 1798.67C2866.61 1794.56 2864.55 1789.47 2864.55 1783.4C2864.55 1777.33 2866.61 1772.24 2870.73 1768.12C2874.84 1763.79 2879.94 1761.62 2886 1761.62C2892.07 1761.62 2897.16 1763.79 2901.28 1768.12C2905.61 1772.24 2907.78 1777.33 2907.78 1783.4C2907.78 1789.47 2905.61 1794.56 2901.28 1798.67C2897.16 1802.79 2892.07 1804.85 2886 1804.85ZM3044.43 1916.32C3044.43 1898.12 3048.01 1881.98 3055.16 1867.9C3062.52 1853.82 3072.38 1842.98 3084.73 1835.4C3097.3 1827.82 3111.27 1824.02 3126.66 1824.02C3140.09 1824.02 3151.79 1826.73 3161.76 1832.15C3171.94 1837.57 3180.06 1844.39 3186.13 1852.62V1826.95H3231.96V2007H3186.13V1980.67C3180.28 1989.12 3172.16 1996.17 3161.76 2001.8C3151.57 2007.22 3139.76 2009.93 3126.33 2009.93C3111.16 2009.93 3097.3 2006.03 3084.73 1998.22C3072.38 1990.42 3062.52 1979.48 3055.16 1965.4C3048.01 1951.1 3044.43 1934.74 3044.43 1916.32ZM3186.13 1916.97C3186.13 1905.92 3183.96 1896.5 3179.63 1888.7C3175.3 1880.68 3169.45 1874.62 3162.08 1870.5C3154.71 1866.17 3146.81 1864 3138.36 1864C3129.91 1864 3122.11 1866.06 3114.96 1870.17C3107.81 1874.29 3101.96 1880.36 3097.41 1888.37C3093.07 1896.17 3090.91 1905.49 3090.91 1916.32C3090.91 1927.16 3093.07 1936.69 3097.41 1944.92C3101.96 1952.94 3107.81 1959.12 3114.96 1963.45C3122.32 1967.78 3130.12 1969.95 3138.36 1969.95C3146.81 1969.95 3154.71 1967.89 3162.08 1963.77C3169.45 1959.44 3175.3 1953.37 3179.63 1945.57C3183.96 1937.56 3186.13 1928.02 3186.13 1916.97ZM3321.89 1766.5V2007H3276.39V1766.5H3321.89ZM3412.35 1853.27C3418.2 1844.61 3426.21 1837.57 3436.4 1832.15C3446.8 1826.73 3458.61 1824.02 3471.82 1824.02C3487.21 1824.02 3501.07 1827.82 3513.42 1835.4C3525.99 1842.98 3535.85 1853.82 3543 1867.9C3550.36 1881.77 3554.05 1897.91 3554.05 1916.32C3554.05 1934.74 3550.36 1951.1 3543 1965.4C3535.85 1979.48 3525.99 1990.42 3513.42 1998.22C3501.07 2006.03 3487.21 2009.93 3471.82 2009.93C3458.39 2009.93 3446.58 2007.33 3436.4 2002.12C3426.43 1996.71 3418.41 1989.77 3412.35 1981.32V2007H3366.85V1766.5H3412.35V1853.27ZM3507.57 1916.32C3507.57 1905.49 3505.3 1896.17 3500.75 1888.37C3496.41 1880.36 3490.56 1874.29 3483.2 1870.17C3476.05 1866.06 3468.25 1864 3459.8 1864C3451.56 1864 3443.76 1866.17 3436.4 1870.5C3429.25 1874.62 3423.4 1880.68 3418.85 1888.7C3414.51 1896.72 3412.35 1906.14 3412.35 1916.97C3412.35 1927.81 3414.51 1937.23 3418.85 1945.25C3423.4 1953.27 3429.25 1959.44 3436.4 1963.77C3443.76 1967.89 3451.56 1969.95 3459.8 1969.95C3468.25 1969.95 3476.05 1967.78 3483.2 1963.45C3490.56 1959.12 3496.41 1952.94 3500.75 1944.92C3505.3 1936.91 3507.57 1927.37 3507.57 1916.32ZM3575.41 1916.97C3575.41 1898.34 3579.2 1882.09 3586.79 1868.22C3594.37 1854.14 3604.88 1843.31 3618.31 1835.72C3631.74 1827.92 3647.13 1824.02 3664.46 1824.02C3686.78 1824.02 3705.19 1829.66 3719.71 1840.92C3734.44 1851.97 3744.3 1867.57 3749.29 1887.72H3700.21C3697.61 1879.92 3693.17 1873.86 3686.89 1869.52C3680.82 1864.97 3673.24 1862.7 3664.14 1862.7C3651.14 1862.7 3640.84 1867.47 3633.26 1877C3625.68 1886.32 3621.89 1899.64 3621.89 1916.97C3621.89 1934.09 3625.68 1947.42 3633.26 1956.95C3640.84 1966.27 3651.14 1970.92 3664.14 1970.92C3682.55 1970.92 3694.58 1962.69 3700.21 1946.22H3749.29C3744.3 1965.72 3734.44 1981.22 3719.71 1992.7C3704.98 2004.18 3686.56 2009.93 3664.46 2009.93C3647.13 2009.93 3631.74 2006.13 3618.31 1998.55C3604.88 1990.75 3594.37 1979.92 3586.79 1966.05C3579.2 1951.97 3575.41 1935.61 3575.41 1916.97ZM3770.92 1916.32C3770.92 1898.12 3774.49 1881.98 3781.64 1867.9C3789.01 1853.82 3798.87 1842.98 3811.22 1835.4C3823.79 1827.82 3837.76 1824.02 3853.14 1824.02C3866.58 1824.02 3878.28 1826.73 3888.24 1832.15C3898.43 1837.57 3906.55 1844.39 3912.62 1852.62V1826.95H3958.44V2007H3912.62V1980.67C3906.77 1989.12 3898.64 1996.17 3888.24 2001.8C3878.06 2007.22 3866.25 2009.93 3852.82 2009.93C3837.65 2009.93 3823.79 2006.03 3811.22 1998.22C3798.87 1990.42 3789.01 1979.48 3781.64 1965.4C3774.49 1951.1 3770.92 1934.74 3770.92 1916.32ZM3912.62 1916.97C3912.62 1905.92 3910.45 1896.5 3906.12 1888.7C3901.79 1880.68 3895.94 1874.62 3888.57 1870.5C3881.2 1866.17 3873.29 1864 3864.84 1864C3856.39 1864 3848.59 1866.06 3841.44 1870.17C3834.29 1874.29 3828.44 1880.36 3823.89 1888.37C3819.56 1896.17 3817.39 1905.49 3817.39 1916.32C3817.39 1927.16 3819.56 1936.69 3823.89 1944.92C3828.44 1952.94 3834.29 1959.12 3841.44 1963.45C3848.81 1967.78 3856.61 1969.95 3864.84 1969.95C3873.29 1969.95 3881.2 1967.89 3888.57 1963.77C3895.94 1959.44 3901.79 1953.37 3906.12 1945.57C3910.45 1937.56 3912.62 1928.02 3912.62 1916.97ZM4048.38 1852.95C4054.23 1844.72 4062.25 1837.89 4072.43 1832.47C4082.83 1826.84 4094.64 1824.02 4107.86 1824.02C4123.24 1824.02 4137.11 1827.82 4149.46 1835.4C4162.02 1842.98 4171.88 1853.82 4179.03 1867.9C4186.4 1881.77 4190.08 1897.91 4190.08 1916.32C4190.08 1934.74 4186.4 1951.1 4179.03 1965.4C4171.88 1979.48 4162.02 1990.42 4149.46 1998.22C4137.11 2006.03 4123.24 2009.93 4107.86 2009.93C4094.64 2009.93 4082.94 2007.22 4072.76 2001.8C4062.79 1996.38 4054.67 1989.56 4048.38 1981.32V2092.8H4002.88V1826.95H4048.38V1852.95ZM4143.61 1916.32C4143.61 1905.49 4141.33 1896.17 4136.78 1888.37C4132.45 1880.36 4126.6 1874.29 4119.23 1870.17C4112.08 1866.06 4104.28 1864 4095.83 1864C4087.6 1864 4079.8 1866.17 4072.43 1870.5C4065.28 1874.62 4059.43 1880.68 4054.88 1888.7C4050.55 1896.72 4048.38 1906.14 4048.38 1916.97C4048.38 1927.81 4050.55 1937.23 4054.88 1945.25C4059.43 1953.27 4065.28 1959.44 4072.43 1963.77C4079.8 1967.89 4087.6 1969.95 4095.83 1969.95C4104.28 1969.95 4112.08 1967.78 4119.23 1963.45C4126.6 1959.12 4132.45 1952.94 4136.78 1944.92C4141.33 1936.91 4143.61 1927.37 4143.61 1916.32ZM4276.12 1864.32V1951.42C4276.12 1957.49 4277.53 1961.93 4280.35 1964.75C4283.38 1967.35 4288.36 1968.65 4295.3 1968.65H4316.42V2007H4287.82C4249.47 2007 4230.3 1988.37 4230.3 1951.1V1864.32H4208.85V1826.95H4230.3V1782.42H4276.12V1826.95H4316.42V1864.32H4276.12ZM4372.22 1805.5C4364.21 1805.5 4357.49 1803.01 4352.07 1798.02C4346.87 1792.82 4344.27 1786.43 4344.27 1778.85C4344.27 1771.27 4346.87 1764.98 4352.07 1760C4357.49 1754.8 4364.21 1752.2 4372.22 1752.2C4380.24 1752.2 4386.85 1754.8 4392.05 1760C4397.46 1764.98 4400.17 1771.27 4400.17 1778.85C4400.17 1786.43 4397.46 1792.82 4392.05 1798.02C4386.85 1803.01 4380.24 1805.5 4372.22 1805.5ZM4394.65 1826.95V2007H4349.15V1826.95H4394.65ZM4519.55 2009.93C4502.22 2009.93 4486.62 2006.13 4472.75 1998.55C4458.89 1990.75 4447.94 1979.81 4439.93 1965.72C4432.13 1951.64 4428.23 1935.39 4428.23 1916.97C4428.23 1898.56 4432.24 1882.31 4440.25 1868.22C4448.49 1854.14 4459.64 1843.31 4473.73 1835.72C4487.81 1827.92 4503.52 1824.02 4520.85 1824.02C4538.19 1824.02 4553.89 1827.92 4567.98 1835.72C4582.06 1843.31 4593.11 1854.14 4601.13 1868.22C4609.36 1882.31 4613.48 1898.56 4613.48 1916.97C4613.48 1935.39 4609.25 1951.64 4600.8 1965.72C4592.57 1979.81 4581.3 1990.75 4567 1998.55C4552.92 2006.13 4537.1 2009.93 4519.55 2009.93ZM4519.55 1970.27C4527.79 1970.27 4535.48 1968.32 4542.63 1964.42C4549.99 1960.31 4555.84 1954.24 4560.18 1946.22C4564.51 1938.21 4566.68 1928.46 4566.68 1916.97C4566.68 1899.86 4562.13 1886.75 4553.03 1877.65C4544.14 1868.33 4533.2 1863.67 4520.2 1863.67C4507.2 1863.67 4496.26 1868.33 4487.38 1877.65C4478.71 1886.75 4474.38 1899.86 4474.38 1916.97C4474.38 1934.09 4478.6 1947.31 4487.05 1956.62C4495.72 1965.72 4506.55 1970.27 4519.55 1970.27ZM4746.63 1824.35C4768.08 1824.35 4785.41 1831.17 4798.63 1844.82C4811.84 1858.26 4818.45 1877.11 4818.45 1901.37V2007H4772.95V1907.55C4772.95 1893.25 4769.38 1882.31 4762.23 1874.72C4755.08 1866.92 4745.33 1863.02 4732.98 1863.02C4720.41 1863.02 4710.44 1866.92 4703.08 1874.72C4695.93 1882.31 4692.35 1893.25 4692.35 1907.55V2007H4646.85V1826.95H4692.35V1849.37C4698.42 1841.57 4706.11 1835.51 4715.43 1831.17C4724.96 1826.62 4735.36 1824.35 4746.63 1824.35ZM4930.62 2009.93C4915.89 2009.93 4902.67 2007.33 4890.97 2002.12C4879.27 1996.71 4869.95 1989.45 4863.02 1980.35C4856.3 1971.25 4852.62 1961.17 4851.97 1950.12H4897.8C4898.66 1957.06 4902.02 1962.8 4907.87 1967.35C4913.94 1971.9 4921.41 1974.17 4930.3 1974.17C4938.96 1974.17 4945.68 1972.44 4950.45 1968.97C4955.43 1965.51 4957.92 1961.07 4957.92 1955.65C4957.92 1949.8 4954.89 1945.47 4948.82 1942.65C4942.97 1939.62 4933.55 1936.37 4920.55 1932.9C4907.11 1929.65 4896.06 1926.29 4887.4 1922.82C4878.95 1919.36 4871.58 1914.05 4865.3 1906.9C4859.23 1899.75 4856.2 1890.11 4856.2 1877.97C4856.2 1868.01 4859.01 1858.91 4864.65 1850.67C4870.5 1842.44 4878.73 1835.94 4889.35 1831.17C4900.18 1826.41 4912.85 1824.02 4927.37 1824.02C4948.82 1824.02 4965.94 1829.44 4978.72 1840.27C4991.5 1850.89 4998.55 1865.3 4999.85 1883.5H4956.3C4955.65 1876.35 4952.61 1870.72 4947.2 1866.6C4942 1862.27 4934.95 1860.1 4926.07 1860.1C4917.84 1860.1 4911.45 1861.62 4906.9 1864.65C4902.56 1867.68 4900.4 1871.91 4900.4 1877.32C4900.4 1883.39 4903.43 1888.05 4909.5 1891.3C4915.56 1894.33 4924.99 1897.47 4937.77 1900.72C4950.77 1903.97 4961.5 1907.33 4969.95 1910.8C4978.4 1914.27 4985.65 1919.68 4991.72 1927.05C4998 1934.2 5001.25 1943.73 5001.47 1955.65C5001.47 1966.05 4998.55 1975.37 4992.7 1983.6C4987.06 1991.83 4978.83 1998.33 4968 2003.1C4957.38 2007.65 4944.92 2009.93 4930.62 2009.93Z" fill="white"/>
</svg>
